<svg id="american-express-2" xmlns="http://www.w3.org/2000/svg" width="30" height="30" viewBox="0 0 30 30">
  <path id="Tracé_105" data-name="Tracé 105" d="M30,15c0,.185,0,.369-.01.553a14.985,14.985,0,0,1-.271,2.35,14.812,14.812,0,0,1-.476,1.816q-.14.423-.3.834A15,15,0,0,1,0,15q0-.256.009-.511.012-.357.04-.709.021-.264.051-.525A15,15,0,0,1,30,15Z" fill="#1c82c8"/>
  <g id="Groupe_102" data-name="Groupe 102" transform="translate(0.009 9.321)">
    <path id="Tracé_106" data-name="Tracé 106" d="M24.719,185.666h1.145l-.573-1.458Z" transform="translate(-23.239 -182.855)" fill="#f0efeb"/>
    <path id="Tracé_107" data-name="Tracé 107" d="M26.2,161.74v.625l-.3-.625H23.522v.625l-.3-.625H19.984a3.011,3.011,0,0,0-1.416.312v-.312H16.294v.312a1.433,1.433,0,0,0-.96-.312H7.194l-.556,1.3-.556-1.3H3.5v.625l-.3-.625H1.185a15.712,15.712,0,0,0-.947,3.884l1.3-3.155H2.8l1.416,3.488v-3.488H5.577l1.112,2.5,1.011-2.5H9.116v3.644H8.256v-2.863l-1.213,2.863H6.285l-1.213-2.863v2.863H3.353L3,165.332H1.281l-.3.833H.186q-.028.362-.04.729H1.432l.3-.833h.708l.3.833H5.678v-.624l.253.624H7.4l.253-.624v.624h7.026V165.54h.1c.1,0,.1,0,.1.156v1.146h3.64v-.313a2.956,2.956,0,0,0,1.365.313H21.4l.3-.833h.707l.3.833h2.932v-.781l.455.781h2.376v-5.1Zm-13.649,1.509H10.581v.677H12.5v.729H10.581v.729h1.971v.781H9.722v-3.7h2.831Zm3.943,2.915h-.859V165.7a1.272,1.272,0,0,0-.152-.729c-.152-.156-.3-.156-.607-.156h-.91v1.353h-.859v-3.7H15.03a1.888,1.888,0,0,1,1.011.156.894.894,0,0,1,.4.833,1.036,1.036,0,0,1-.606.989.96.96,0,0,1,.505.313,1.335,1.335,0,0,1,.152.677v.728Zm1.365-.052H17v-3.7h.859Zm9.857,0H26.606l-1.617-2.759v2.759H23.269l-.3-.781H21.2l-.3.833h-.961a1.734,1.734,0,0,1-1.213-.416,1.863,1.863,0,0,1-.455-1.406,2.18,2.18,0,0,1,.455-1.458,1.566,1.566,0,0,1,1.264-.416h.809v.781h-.809a.915.915,0,0,0-.657.208,1.246,1.246,0,0,0-.253.833,1.154,1.154,0,0,0,.253.885.792.792,0,0,0,.606.208h.354l1.163-2.863h1.264l1.415,3.487v-3.487h1.264l1.466,2.55v-2.55h.859v3.592Z" transform="translate(-0.146 -161.74)" fill="#f0efeb"/>
    <path id="Tracé_108" data-name="Tracé 108" d="M125.82,289.63v.677h1.926v.729H125.82v.781h2.134l.989-1.093-.937-1.093Z" transform="translate(-118.48 -281.926)" fill="#f0efeb"/>
    <path id="Tracé_109" data-name="Tracé 109" d="M121.332,266.944a.769.769,0,0,0-.364.052c-.1.052-.1.156-.1.26,0,.156.052.208.208.261a.66.66,0,0,0,.313.052h.468a1.363,1.363,0,0,1,.956.281,15.405,15.405,0,0,0,.278-2.416H121.28a1.705,1.705,0,0,0-1.093.312v-.312h-2.4a1.651,1.651,0,0,0-1.041.312v-.312h-4.216v.312a2.015,2.015,0,0,0-1.146-.312h-2.81v.312a1.978,1.978,0,0,0-1.2-.312h-3.123l-.729.781-.677-.781H98.168v5.1h4.581l.728-.781.677.781h2.811v-1.2h.364a3.168,3.168,0,0,0,1.2-.156v1.406h2.342v-1.353h.1c.156,0,.156,0,.156.156v1.2h7.079a2.039,2.039,0,0,0,1.2-.312v.312h2.238c.121,0,.243,0,.361-.013q.169-.423.313-.858a2.01,2.01,0,0,1-.622.09h-1.666v-.781H121.7a.441.441,0,0,0,.364-.1.378.378,0,0,0,0-.521.44.44,0,0,0-.313-.1c-.833-.052-1.822,0-1.822-1.145,0-.521.312-1.093,1.249-1.093h1.718v.885Zm-14,1.666h-1.041v1.249h-1.666l-1.041-1.2-1.093,1.2H99.053v-3.7h3.488l1.041,1.2,1.093-1.2h2.759c.677,0,1.458.208,1.458,1.2C108.839,268.4,108.11,268.611,107.33,268.611Zm5.206-.208a1.183,1.183,0,0,1,.156.677v.729h-.885v-.469a1.162,1.162,0,0,0-.156-.728c-.1-.157-.312-.157-.624-.157h-.937v1.354H109.2v-3.7h1.978a2.1,2.1,0,0,1,1.041.156.921.921,0,0,1,.468.833,1.038,1.038,0,0,1-.624.99A.888.888,0,0,1,112.535,268.4Zm3.592-1.51H114.1v.677h1.978v.728H114.1v.729h2.03v.781h-2.915v-3.7h2.915Zm2.186,2.916h-1.666v-.781h1.666a.44.44,0,0,0,.364-.1.376.376,0,0,0,0-.521.438.438,0,0,0-.312-.1c-.833-.052-1.822,0-1.822-1.145,0-.521.312-1.093,1.249-1.093h1.718v.885H117.9a.77.77,0,0,0-.364.052c-.1.052-.1.156-.1.26,0,.156.1.208.208.261a.66.66,0,0,0,.312.052h.469a1.325,1.325,0,0,1,.989.312,1.077,1.077,0,0,1,.261.781C119.667,269.443,119.2,269.808,118.313,269.808Z" transform="translate(-93.106 -259.188)" fill="#f0efeb"/>
    <path id="Tracé_110" data-name="Tracé 110" d="M237.885,187.582a.405.405,0,0,0,.156-.364.289.289,0,0,0-.156-.364,1.015,1.015,0,0,0-.416-.052h-1.041v.833h1.041A1.015,1.015,0,0,0,237.885,187.582Z" transform="translate(-222.604 -185.291)" fill="#f0efeb"/>
    <path id="Tracé_111" data-name="Tracé 111" d="M365.8,184.208l-.625,1.458h1.2Z" transform="translate(-343.816 -182.855)" fill="#f0efeb"/>
    <path id="Tracé_112" data-name="Tracé 112" d="M197.167,286.548v-2.967l-1.353,1.458Z" transform="translate(-184.364 -276.241)" fill="#f0efeb"/>
    <path id="Tracé_113" data-name="Tracé 113" d="M234.063,289.63H232.97v.937h1.145c.312,0,.521-.156.521-.468A.525.525,0,0,0,234.063,289.63Z" transform="translate(-219.35 -281.926)" fill="#f0efeb"/>
    <path id="Tracé_114" data-name="Tracé 114" d="M298.373,290.546a1.015,1.015,0,0,0-.416-.052h-1.041v.833h1.041a1.015,1.015,0,0,0,.416-.052.405.405,0,0,0,.156-.364A.289.289,0,0,0,298.373,290.546Z" transform="translate(-279.554 -282.738)" fill="#f0efeb"/>
  </g>
</svg>
