<svg xmlns="http://www.w3.org/2000/svg" width="45.455" height="15.801" viewBox="0 0 45.455 15.801">
  <g id="american-express" transform="translate(0 -164.4)">
    <path id="Tracé_31" data-name="Tracé 31" d="M43.2,187.22h1.587l-.794-2.02Z" transform="translate(-39.304 -18.924)" fill="#2fabf7"/>
    <path id="Tracé_32" data-name="Tracé 32" d="M241.22,187.672a1.407,1.407,0,0,0-.577-.072H239.2v1.154h1.443a1.406,1.406,0,0,0,.577-.072.562.562,0,0,0,.216-.505A.4.4,0,0,0,241.22,187.672Z" transform="translate(-217.627 -21.108)" fill="#228fe0"/>
    <path id="Tracé_33" data-name="Tracé 33" d="M39.034,164.4v.866L38.6,164.4H35.21v.866l-.433-.866H30.159a4.393,4.393,0,0,0-2.02.433V164.4H24.892v.433a2.08,2.08,0,0,0-1.371-.433H11.9l-.794,1.8-.794-1.8H6.638v.866L6.2,164.4H3.1l-1.443,3.391L0,171.543H3.68l.433-1.154h1.01l.433,1.154H9.74v-.866l.361.866h2.092l.361-.866v.866H22.583v-1.876h.144c.144,0,.144,0,.144.216v1.587h5.195v-.433a4.322,4.322,0,0,0,1.948.433h2.165l.433-1.154h1.01l.433,1.154H38.24v-1.082l.649,1.082H42.28V164.4Zm-24.387,6.061H13.42v-3.968l-1.732,3.968H10.606l-1.732-3.968v3.968H6.421l-.505-1.082H3.463l-.433,1.154H1.659l2.165-5.123h1.8l2.02,4.834V165.41H9.6l1.587,3.463,1.443-3.463h2.02Zm4.906-3.968H16.739v.938h2.742v1.01H16.739v1.01h2.814v1.082h-4.04V165.41h4.04Zm5.411,2.092a1.805,1.805,0,0,1,.216.938v1.01H23.954v-.649a1.719,1.719,0,0,0-.216-1.01c-.216-.216-.433-.216-.866-.216h-1.3v1.876H20.347V165.41h2.742a2.766,2.766,0,0,1,1.443.216,1.229,1.229,0,0,1,.577,1.154,1.436,1.436,0,0,1-.866,1.371A1.372,1.372,0,0,1,24.964,168.585Zm2.165,1.876H25.9v-5.123h1.227Zm14.214,0H39.611L37.3,166.637v3.824H34.849l-.433-1.082H31.891l-.433,1.154H30.087a2.169,2.169,0,0,1-2.381-2.525,2.957,2.957,0,0,1,.649-2.02,2.274,2.274,0,0,1,1.8-.577h1.154v1.082H30.159a1.331,1.331,0,0,0-.938.289,1.694,1.694,0,0,0-.361,1.154,1.57,1.57,0,0,0,.361,1.227,1.15,1.15,0,0,0,.866.289h.505l1.659-3.968h1.8l2.02,4.834v-4.834h1.8l2.092,3.535v-3.535H41.2v4.978Z" fill="#0571c1"/>
    <g id="Groupe_88" data-name="Groupe 88" transform="translate(18.182 166.276)">
      <path id="Tracé_34" data-name="Tracé 34" d="M358.4,187.22h1.659l-.794-2.02Z" transform="translate(-344.258 -185.2)" fill="#228fe0"/>
      <path id="Tracé_35" data-name="Tracé 35" d="M203.476,281.313V277.2l-1.876,2.02Z" transform="translate(-201.6 -268.903)" fill="#228fe0"/>
    </g>
    <path id="Tracé_36" data-name="Tracé 36" d="M136.8,282.8v.938h2.67v1.01H136.8v1.082h2.958l1.371-1.515-1.3-1.515Z" transform="translate(-124.462 -107.722)" fill="#2fabf7"/>
    <path id="SVGCleanerId_0" d="M237.515,282.8H236v1.3h1.587c.433,0,.722-.216.722-.649A.728.728,0,0,0,237.515,282.8Z" transform="translate(-214.715 -107.722)" fill="#228fe0"/>
    <path id="Tracé_37" data-name="Tracé 37" d="M146.265,263.647V260.4h-3.03a2.367,2.367,0,0,0-1.515.433V260.4H138.4a2.29,2.29,0,0,0-1.443.433V260.4h-5.844v.433a2.789,2.789,0,0,0-1.587-.433h-3.9v.433a2.738,2.738,0,0,0-1.659-.433h-4.329l-1.01,1.082-.938-1.082H111.2v7.071h6.349l1.01-1.082.938,1.082h3.9v-1.659h.505a4.39,4.39,0,0,0,1.659-.216v1.948H128.8v-1.876h.144c.216,0,.216,0,.216.216v1.659h9.813a2.829,2.829,0,0,0,1.659-.433v.433h3.1a3.24,3.24,0,0,0,1.732-.361h0a2.456,2.456,0,0,0,1.154-2.165A2.763,2.763,0,0,0,146.265,263.647ZM123.9,264.8h-1.443v1.732h-2.309l-1.443-1.659-1.515,1.659h-4.762V261.41h4.834l1.443,1.659,1.515-1.659h3.824c.938,0,2.02.289,2.02,1.659C125.991,264.513,124.981,264.8,123.9,264.8Zm7.215-.289a1.637,1.637,0,0,1,.216.938v1.01H130.1v-.649a1.611,1.611,0,0,0-.216-1.01c-.144-.216-.433-.216-.866-.216h-1.3v1.876H126.5v-5.123h2.742a2.9,2.9,0,0,1,1.443.216,1.276,1.276,0,0,1,.649,1.154,1.436,1.436,0,0,1-.866,1.371A1.234,1.234,0,0,1,131.114,264.513Zm4.978-2.092h-2.814v.938h2.742v1.01h-2.742v1.01h2.814v1.082h-4.04v-5.123h4.04Zm3.03,4.04h-2.309v-1.082h2.309a.609.609,0,0,0,.505-.144.523.523,0,0,0,0-.721.61.61,0,0,0-.433-.144c-1.154-.072-2.525,0-2.525-1.587,0-.722.433-1.515,1.732-1.515h2.381v1.227h-2.237a1.07,1.07,0,0,0-.505.072c-.144.072-.144.216-.144.361,0,.216.144.289.289.361a.915.915,0,0,0,.433.072h.649a1.837,1.837,0,0,1,1.371.433,1.494,1.494,0,0,1,.361,1.082C141,265.956,140.349,266.461,139.122,266.461Zm6.2-.505a2.1,2.1,0,0,1-1.515.505H141.5v-1.082h2.309a.609.609,0,0,0,.505-.144.523.523,0,0,0,0-.721.61.61,0,0,0-.433-.144c-1.154-.072-2.525,0-2.525-1.587,0-.722.433-1.515,1.732-1.515h2.381v1.227h-2.165a1.07,1.07,0,0,0-.505.072c-.144.072-.144.216-.144.361,0,.216.072.289.289.361a.915.915,0,0,0,.433.072h.649a1.837,1.837,0,0,1,1.371.433.071.071,0,0,1,.072.072,1.656,1.656,0,0,1,.289,1.01A1.468,1.468,0,0,1,145.327,265.956Z" transform="translate(-101.171 -87.342)" fill="#0571c1"/>
    <path id="SVGCleanerId_1" d="M297.22,283.672a1.407,1.407,0,0,0-.577-.072H295.2v1.154h1.443a1.407,1.407,0,0,0,.577-.072.562.562,0,0,0,.216-.505A.4.4,0,0,0,297.22,283.672Z" transform="translate(-268.576 -108.45)" fill="#228fe0"/>
    <g id="Groupe_89" data-name="Groupe 89" transform="translate(18.182 166.276)">
      <path id="Tracé_38" data-name="Tracé 38" d="M241.22,187.672a1.407,1.407,0,0,0-.577-.072H239.2v1.154h1.443a1.406,1.406,0,0,0,.577-.072.562.562,0,0,0,.216-.505A.4.4,0,0,0,241.22,187.672Z" transform="translate(-235.809 -187.384)" fill="#228fe0"/>
      <path id="Tracé_39" data-name="Tracé 39" d="M358.4,187.22h1.659l-.794-2.02Z" transform="translate(-344.258 -185.2)" fill="#228fe0"/>
      <path id="Tracé_40" data-name="Tracé 40" d="M203.476,281.313V277.2l-1.876,2.02Z" transform="translate(-201.6 -268.903)" fill="#228fe0"/>
    </g>
    <g id="Groupe_90" data-name="Groupe 90" transform="translate(21.285 175.078)">
      <path id="SVGCleanerId_0_1_" d="M237.515,282.8H236v1.3h1.587c.433,0,.722-.216.722-.649A.728.728,0,0,0,237.515,282.8Z" transform="translate(-236 -282.8)" fill="#228fe0"/>
    </g>
    <g id="Groupe_91" data-name="Groupe 91" transform="translate(26.624 175.15)">
      <path id="SVGCleanerId_1_1_" d="M297.22,283.672a1.407,1.407,0,0,0-.577-.072H295.2v1.154h1.443a1.407,1.407,0,0,0,.577-.072.562.562,0,0,0,.216-.505A.4.4,0,0,0,297.22,283.672Z" transform="translate(-295.2 -283.6)" fill="#228fe0"/>
    </g>
    <g id="Groupe_92" data-name="Groupe 92" transform="translate(0 164.4)">
      <path id="Tracé_41" data-name="Tracé 41" d="M123.466,266.316l-1.01-1.082v1.227h-2.381l-1.443-1.659-1.587,1.659h-4.762V261.41h4.834l1.515,1.659.722-.866-1.8-1.8H111.2v7.071h6.349l1.082-1.082.938,1.082h3.9Z" transform="translate(-101.171 -251.742)" fill="#2fabf7"/>
      <path id="Tracé_42" data-name="Tracé 42" d="M14.791,171.471l-.938-1.01H13.42v-.433l-1.082-1.082-.722,1.515h-1.01l-1.732-3.968v3.968H6.421l-.505-1.082H3.463l-.505,1.082h-1.3l2.165-5.051h1.8l2.02,4.834V165.41H8.73L7.72,164.4H6.638v.866l-.361-.866H3.1l-1.443,3.391L0,171.471H3.752l.433-1.082h1.01l.505,1.082H9.74V170.6l.361.866h2.092l.361-.866v.866Z" transform="translate(0 -164.4)" fill="#2fabf7"/>
      <path id="Tracé_43" data-name="Tracé 43" d="M115.554,194.354,114.4,193.2l.866,1.876Z" transform="translate(-104.082 -190.603)" fill="#2fabf7"/>
    </g>
    <g id="Groupe_93" data-name="Groupe 93" transform="translate(7.143 164.472)">
      <path id="Tracé_44" data-name="Tracé 44" d="M202.972,264.926a2.639,2.639,0,0,0,1.154-1.948l-1.01-1.01a2.134,2.134,0,0,1,.144.721,1.468,1.468,0,0,1-.433,1.082,2.1,2.1,0,0,1-1.515.505H199v-1.082h2.309a.609.609,0,0,0,.505-.144.523.523,0,0,0,0-.721.61.61,0,0,0-.433-.144c-1.154-.072-2.525,0-2.525-1.587,0-.721.433-1.371,1.515-1.515l-.794-.794c-.144.072-.216.144-.289.144V258h-3.319a2.289,2.289,0,0,0-1.443.433V258h-5.916v.433a2.789,2.789,0,0,0-1.587-.433h-3.9v.433a2.738,2.738,0,0,0-1.659-.433h-4.329l-1.01,1.082L175.194,258H174.4l2.165,2.165,1.082-1.154h3.824c.938,0,2.02.289,2.02,1.659,0,1.443-1.01,1.732-2.092,1.732h-1.443v1.082l1.082,1.082v-1.082h.361a4.39,4.39,0,0,0,1.66-.216v1.948H186.3v-1.876h.144c.216,0,.216,0,.216.216v1.659h9.813a2.829,2.829,0,0,0,1.659-.433v.433h3.1a2.862,2.862,0,0,0,1.732-.289Zm-14.358-2.6a1.637,1.637,0,0,1,.216.938v1.01H187.6v-.649a1.611,1.611,0,0,0-.216-1.01c-.144-.216-.433-.216-.866-.216h-1.3v1.876H184v-5.123h2.742a2.9,2.9,0,0,1,1.443.216,1.276,1.276,0,0,1,.649,1.154,1.436,1.436,0,0,1-.866,1.371A1.234,1.234,0,0,1,188.614,262.329Zm4.978-2.092h-2.814v.938h2.742v1.01h-2.742v1.01h2.814v1.082h-4.04v-5.123h4.04Zm3.03,4.04h-2.309v-1.082h2.309a.609.609,0,0,0,.505-.144.523.523,0,0,0,0-.721.61.61,0,0,0-.433-.144c-1.154-.072-2.525,0-2.525-1.587,0-.721.433-1.515,1.732-1.515h2.381v1.227h-2.237a1.07,1.07,0,0,0-.505.072c-.144.072-.144.216-.144.361,0,.216.144.289.289.361a.916.916,0,0,0,.433.072h.649a1.837,1.837,0,0,1,1.371.433,1.494,1.494,0,0,1,.361,1.082C198.5,263.772,197.849,264.277,196.622,264.277Z" transform="translate(-165.814 -249.63)" fill="#228fe0"/>
      <path id="Tracé_45" data-name="Tracé 45" d="M459.2,284.033c0,.216.072.289.289.361a.915.915,0,0,0,.433.072h.649a2.1,2.1,0,0,1,1.01.216L460.5,283.6h-.649a1.07,1.07,0,0,0-.505.072A.551.551,0,0,0,459.2,284.033Z" transform="translate(-424.928 -272.922)" fill="#228fe0"/>
      <path id="Tracé_46" data-name="Tracé 46" d="M431.2,240.4l.144.216h.072Z" transform="translate(-399.454 -233.618)" fill="#228fe0"/>
      <path id="Tracé_47" data-name="Tracé 47" d="M387.2,196.4l1.227,2.958v-1.732Z" transform="translate(-359.422 -193.586)" fill="#228fe0"/>
      <path id="Tracé_48" data-name="Tracé 48" d="M94.64,170.395h.144c.144,0,.144,0,.144.216V172.2h5.195v-.433a4.322,4.322,0,0,0,1.948.433h2.165l.433-1.154h1.01l.433,1.154H110.3v-.722l-1.01-1.01v.794h-2.453l-.361-1.154h-2.525l-.433,1.154h-1.371a2.169,2.169,0,0,1-2.381-2.525,2.957,2.957,0,0,1,.649-2.02,2.274,2.274,0,0,1,1.8-.577h1.154v1.082h-1.154a1.331,1.331,0,0,0-.938.289,1.694,1.694,0,0,0-.361,1.154,1.57,1.57,0,0,0,.361,1.227,1.15,1.15,0,0,0,.866.289h.505l1.659-3.968h.722l-1.01-1.01h-1.876a4.393,4.393,0,0,0-2.02.433V165.2H96.949v.433a2.08,2.08,0,0,0-1.371-.433H83.962l-.794,1.8-.794-1.8H79.2l1.01,1.01h1.443l1.227,2.67.433.433,1.3-3.175h2.02v5.123H85.4v-3.968l-1.227,2.886,2.092,2.092h8.3Zm3.319-4.257h1.227v5.123H97.959ZM91.61,167.22H88.8v.938h2.742v1.01H88.8v1.01H91.61v1.082H87.57v-5.123h4.04Zm2.02,3.968H92.4v-5.123h2.742a2.766,2.766,0,0,1,1.443.216,1.229,1.229,0,0,1,.577,1.154,1.436,1.436,0,0,1-.866,1.371.945.945,0,0,1,.577.433,1.8,1.8,0,0,1,.216.938v1.01H95.867v-.649a1.719,1.719,0,0,0-.216-1.01c-.072-.144-.289-.144-.722-.144h-1.3v1.8Z" transform="translate(-79.2 -165.2)" fill="#228fe0"/>
    </g>
  </g>
</svg>
