<svg xmlns="http://www.w3.org/2000/svg" width="30" height="10" viewBox="0 0 30 10">
  <g id="visa" transform="translate(0 -100.23)">
    <g id="Groupe_101" data-name="Groupe 101" transform="translate(3.663 100.23)">
      <g id="Groupe_100" data-name="Groupe 100" transform="translate(0 0)">
        <path id="Tracé_103" data-name="Tracé 103" d="M36.422,100.23l-1.458,9.98h2.33l1.457-9.98Zm7.03,4.065c-.814-.442-1.314-.741-1.314-1.193.01-.411.422-.833,1.343-.833a3.741,3.741,0,0,1,1.736.37l.211.1.317-2.088a5.413,5.413,0,0,0-2.092-.411c-2.3,0-3.922,1.316-3.932,3.2-.019,1.389,1.16,2.16,2.043,2.622.9.474,1.208.782,1.208,1.2-.01.647-.729.946-1.4.946a4.381,4.381,0,0,1-2.187-.514l-.307-.154-.326,2.17a6.7,6.7,0,0,0,2.6.515c2.446,0,4.037-1.3,4.057-3.3C45.417,105.827,44.8,104.984,43.452,104.3Zm8.268-4.034h-1.8a1.147,1.147,0,0,0-1.218.8l-3.462,9.146h2.446l.674-1.98h2.736l.35,1.988H53.6Zm-2.685,5.971c.047.005.939-3.232.939-3.232l.71,3.232Zm-16.017-6-2.283,6.78-.249-1.337a7.286,7.286,0,0,0-3.223-4.052l2.091,8.579h2.466l3.664-9.969H33.017Z" transform="translate(-27.262 -100.23)" fill="#2394bc"/>
      </g>
    </g>
    <path id="Tracé_104" data-name="Tracé 104" d="M6.976,101.825a2.055,2.055,0,0,0-2.046-1.577H.05l-.05.227c3.806.938,7,3.826,8.038,6.542Z" transform="translate(0 -0.016)" fill="#efc75e"/>
  </g>
</svg>
