<svg id="instagram-2" xmlns="http://www.w3.org/2000/svg" width="30" height="30" viewBox="0 0 30 30">
  <path id="Tracé_9" data-name="Tracé 9" d="M213.008,210a3,3,0,1,1-3-3A3,3,0,0,1,213.008,210Zm0,0" transform="translate(-195.004 -195.004)" fill="#eea19f"/>
  <path id="Tracé_10" data-name="Tracé 10" d="M149.9,137.561a2.984,2.984,0,0,0-1.71-1.71,4.986,4.986,0,0,0-1.673-.31c-.951-.043-1.236-.053-3.642-.053s-2.692.009-3.642.052a4.989,4.989,0,0,0-1.673.31,2.986,2.986,0,0,0-1.711,1.71,4.988,4.988,0,0,0-.31,1.674c-.043.95-.053,1.235-.053,3.642s.009,2.691.053,3.642a4.986,4.986,0,0,0,.31,1.673,2.984,2.984,0,0,0,1.71,1.71,4.98,4.98,0,0,0,1.674.31c.95.043,1.235.052,3.642.052s2.692-.009,3.642-.052a4.98,4.98,0,0,0,1.674-.31,2.984,2.984,0,0,0,1.71-1.71,4.991,4.991,0,0,0,.31-1.673c.043-.951.052-1.236.052-3.642s-.009-2.692-.052-3.642A4.98,4.98,0,0,0,149.9,137.561Zm-7.026,9.943a4.628,4.628,0,1,1,4.628-4.628A4.628,4.628,0,0,1,142.873,147.5Zm4.811-8.357a1.082,1.082,0,1,1,1.082-1.082A1.082,1.082,0,0,1,147.684,139.147Zm0,0" transform="translate(-127.873 -127.877)" fill="#eea19f"/>
  <path id="Tracé_11" data-name="Tracé 11" d="M15,0A15,15,0,1,0,30,15,15,15,0,0,0,15,0Zm8.561,18.551a6.319,6.319,0,0,1-.4,2.091,4.4,4.4,0,0,1-2.519,2.519,6.324,6.324,0,0,1-2.091.4c-.919.042-1.212.052-3.551.052s-2.633-.01-3.551-.052a6.324,6.324,0,0,1-2.091-.4,4.4,4.4,0,0,1-2.519-2.519,6.318,6.318,0,0,1-.4-2.091C6.4,17.633,6.387,17.339,6.387,15s.01-2.633.052-3.551a6.32,6.32,0,0,1,.4-2.091A4.407,4.407,0,0,1,9.358,6.839a6.325,6.325,0,0,1,2.091-.4c.919-.042,1.212-.052,3.551-.052s2.633.01,3.551.052a6.327,6.327,0,0,1,2.091.4,4.405,4.405,0,0,1,2.519,2.519,6.319,6.319,0,0,1,.4,2.091c.042.919.052,1.212.052,3.551S23.6,17.633,23.561,18.551Zm0,0" fill="#eea19f"/>
</svg>
