<svg id="linkedin-logo" xmlns="http://www.w3.org/2000/svg" width="30" height="30" viewBox="0 0 30 30">
  <g id="post-linkedin">
    <path id="Tracé_7" data-name="Tracé 7" d="M27,0H3A3.009,3.009,0,0,0,0,3V27a3.009,3.009,0,0,0,3,3H27a3.009,3.009,0,0,0,3-3V3A3.009,3.009,0,0,0,27,0ZM9,25.5H4.5V12H9ZM6.75,9.45a2.7,2.7,0,1,1,2.7-2.7A2.689,2.689,0,0,1,6.75,9.45ZM25.5,25.5H21V17.55a2.25,2.25,0,1,0-4.5,0V25.5H12V12h4.5v1.8a4.845,4.845,0,0,1,3.75-2.1,5.315,5.315,0,0,1,5.25,5.25Z" fill="#eda19f"/>
  </g>
</svg>
