<svg xmlns="http://www.w3.org/2000/svg" width="30" height="25" viewBox="0 0 30 25">
  <g id="twitter" transform="translate(0 -48)">
    <g id="Groupe_58" data-name="Groupe 58" transform="translate(0 48)">
      <path id="Tracé_8" data-name="Tracé 8" d="M30,50.96a12.573,12.573,0,0,1-3.544,1,6.247,6.247,0,0,0,2.706-3.487A12.106,12.106,0,0,1,25.262,50a6.092,6.092,0,0,0-4.493-2,6.229,6.229,0,0,0-6.146,6.31,6.656,6.656,0,0,0,.142,1.438,17.269,17.269,0,0,1-12.677-6.6,6.476,6.476,0,0,0-.842,3.188,6.361,6.361,0,0,0,2.732,5.242A5.958,5.958,0,0,1,1.2,56.8v.069a6.3,6.3,0,0,0,4.927,6.2,5.993,5.993,0,0,1-1.613.208,5.306,5.306,0,0,1-1.164-.108A6.231,6.231,0,0,0,9.1,67.565a12.163,12.163,0,0,1-7.626,2.69A11.235,11.235,0,0,1,0,70.169,17,17,0,0,0,9.435,73c11.317,0,17.5-9.615,17.5-17.95,0-.279-.009-.548-.022-.815A12.448,12.448,0,0,0,30,50.96Z" transform="translate(0 -48)" fill="#eea19f"/>
    </g>
  </g>
</svg>
