<svg xmlns="http://www.w3.org/2000/svg" width="47.119" height="57.993" viewBox="0 0 47.119 57.993">
  <g id="trash" transform="translate(-48)">
    <path id="Tracé_12" data-name="Tracé 12" d="M90.588,7.249H80.621V5.437A5.443,5.443,0,0,0,75.184,0H67.935A5.443,5.443,0,0,0,62.5,5.437V7.249H52.531A4.536,4.536,0,0,0,48,11.78v6.343a1.812,1.812,0,0,0,1.812,1.812h.99l1.566,32.879A5.43,5.43,0,0,0,57.8,57.993H85.32a5.43,5.43,0,0,0,5.431-5.178l1.566-32.879h.99a1.812,1.812,0,0,0,1.812-1.812V11.78A4.536,4.536,0,0,0,90.588,7.249ZM66.123,5.437a1.814,1.814,0,0,1,1.812-1.812h7.249A1.814,1.814,0,0,1,77,5.437V7.249H66.123Zm-14.5,6.343a.907.907,0,0,1,.906-.906H90.588a.907.907,0,0,1,.906.906V16.31H51.625ZM87.13,52.642a1.81,1.81,0,0,1-1.81,1.726H57.8a1.81,1.81,0,0,1-1.81-1.726L54.431,19.935H88.688Z" transform="translate(0)" fill="#eda09e"/>
    <path id="Tracé_13" data-name="Tracé 13" d="M241.812,235.184a1.812,1.812,0,0,0,1.812-1.812v-23.56a1.812,1.812,0,1,0-3.625,0v23.56A1.812,1.812,0,0,0,241.812,235.184Z" transform="translate(-170.253 -184.44)" fill="#eda09e"/>
    <path id="Tracé_14" data-name="Tracé 14" d="M321.812,235.184a1.812,1.812,0,0,0,1.812-1.812v-23.56a1.812,1.812,0,1,0-3.625,0v23.56A1.812,1.812,0,0,0,321.812,235.184Z" transform="translate(-241.191 -184.44)" fill="#eda09e"/>
    <path id="Tracé_15" data-name="Tracé 15" d="M161.812,235.184a1.812,1.812,0,0,0,1.812-1.812v-23.56a1.812,1.812,0,1,0-3.625,0v23.56A1.812,1.812,0,0,0,161.812,235.184Z" transform="translate(-99.314 -184.44)" fill="#eda09e"/>
  </g>
</svg>
