<svg xmlns="http://www.w3.org/2000/svg" width="31.087" height="18.652" viewBox="0 0 31.087 18.652">
  <g id="mastercard" transform="translate(0 -100.8)">
    <path id="Tracé_77" data-name="Tracé 77" d="M220.252,110.126a9.326,9.326,0,0,1-18.652,0h0a9.326,9.326,0,1,1,18.652,0Z" transform="translate(-189.165 0)" fill="#ffb600"/>
    <path id="Tracé_78" data-name="Tracé 78" d="M210.926,100.8a9.35,9.35,0,0,1,9.326,9.326h0a9.326,9.326,0,0,1-18.652,0" transform="translate(-189.165)" fill="#f7981d"/>
    <path id="Tracé_79" data-name="Tracé 79" d="M352.8,100.8a9.35,9.35,0,0,1,9.326,9.326h0a9.319,9.319,0,0,1-9.326,9.326" transform="translate(-331.039)" fill="#ff8500"/>
    <path id="Tracé_80" data-name="Tracé 80" d="M9.227,100.8a9.326,9.326,0,0,0,.1,18.652,9.435,9.435,0,0,0,6.267-2.418h0a8.866,8.866,0,0,0,.938-.987H14.606a11.384,11.384,0,0,1-.691-.938h3.306a6.321,6.321,0,0,0,.543-.987H13.372a5.881,5.881,0,0,1-.395-.987h5.132a9.8,9.8,0,0,0,.493-2.961,12.736,12.736,0,0,0-.2-1.974H12.681a7.214,7.214,0,0,1,.247-.987H18.06a5.881,5.881,0,0,0-.395-.987H13.323a9.785,9.785,0,0,1,.543-.987h3.306a4.692,4.692,0,0,0-.74-.987H14.606a8.41,8.41,0,0,1,.938-.938A9.105,9.105,0,0,0,9.277,100.9C9.277,100.8,9.277,100.8,9.227,100.8Z" fill="#ff5050"/>
    <path id="Tracé_81" data-name="Tracé 81" d="M0,111.627a9.319,9.319,0,0,0,9.326,9.326,9.435,9.435,0,0,0,6.267-2.418h0a8.867,8.867,0,0,0,.938-.987H14.606a11.384,11.384,0,0,1-.691-.938h3.306a6.321,6.321,0,0,0,.543-.987H13.372a5.882,5.882,0,0,1-.395-.987h5.132a9.8,9.8,0,0,0,.493-2.961,12.736,12.736,0,0,0-.2-1.974H12.681a7.214,7.214,0,0,1,.247-.987H18.06a5.881,5.881,0,0,0-.395-.987H13.323a9.786,9.786,0,0,1,.543-.987h3.306a4.692,4.692,0,0,0-.74-.987H14.606a8.411,8.411,0,0,1,.938-.938A9.105,9.105,0,0,0,9.277,102.4H9.227" transform="translate(0 -1.501)" fill="#e52836"/>
    <path id="Tracé_82" data-name="Tracé 82" d="M149.7,120.953a9.435,9.435,0,0,0,6.267-2.418h0a8.866,8.866,0,0,0,.938-.987h-1.924a11.383,11.383,0,0,1-.691-.938h3.306a6.32,6.32,0,0,0,.543-.987h-4.392a5.88,5.88,0,0,1-.395-.987h5.132a9.8,9.8,0,0,0,.493-2.961,12.736,12.736,0,0,0-.2-1.974h-5.724a7.214,7.214,0,0,1,.247-.987h5.132a5.881,5.881,0,0,0-.395-.987H153.7a9.785,9.785,0,0,1,.543-.987h3.306a4.692,4.692,0,0,0-.74-.987h-1.826a8.411,8.411,0,0,1,.938-.938,9.105,9.105,0,0,0-6.267-2.418H149.6" transform="translate(-140.373 -1.501)" fill="#cb2026"/>
    <g id="Groupe_98" data-name="Groupe 98" transform="translate(0.888 107.708)">
      <path id="Tracé_83" data-name="Tracé 83" d="M183.031,224.342l.148-.839a2.136,2.136,0,0,1-.247.049c-.345,0-.395-.2-.345-.3l.3-1.727h.543l.148-.938h-.493l.1-.592h-.987s-.592,3.257-.592,3.651a.741.741,0,0,0,.79.839A1.515,1.515,0,0,0,183.031,224.342Z" transform="translate(-171.287 -219.556)" fill="#fff"/>
      <path id="Tracé_84" data-name="Tracé 84" d="M210.4,230.925a1.57,1.57,0,0,0,1.727,1.727,2.562,2.562,0,0,0,1.036-.148l.2-.938a2.958,2.958,0,0,1-1.036.247c-1.086,0-.888-.789-.888-.789h2.023a6.4,6.4,0,0,0,.148-.888,1.337,1.337,0,0,0-1.431-1.431C211.14,228.606,210.4,229.692,210.4,230.925Zm1.727-1.431c.543,0,.444.641.444.691h-1.086C211.486,230.136,211.584,229.495,212.127,229.495Z" transform="translate(-198.311 -227.718)" fill="#fff"/>
      <path id="Tracé_85" data-name="Tracé 85" d="M298.714,217.586l.2-1.086a2.425,2.425,0,0,1-.839.247c-.691,0-.987-.543-.987-1.135,0-1.184.592-1.826,1.283-1.826a1.648,1.648,0,0,1,.888.3l.148-1.036a3.469,3.469,0,0,0-1.135-.247c-1.135,0-2.27.987-2.27,2.862,0,1.234.592,2.072,1.776,2.072A4.429,4.429,0,0,0,298.714,217.586Z" transform="translate(-278.631 -212.8)" fill="#fff"/>
      <path id="Tracé_86" data-name="Tracé 86" d="M88.275,227.2a3.5,3.5,0,0,0-1.184.2l-.148.839a2.917,2.917,0,0,1,1.086-.2c.345,0,.641.049.641.345,0,.2-.049.247-.049.247h-.444c-.839,0-1.776.345-1.776,1.48,0,.888.592,1.086.938,1.086a1.483,1.483,0,0,0,1.036-.444l-.049.395h.888l.395-2.714A1.169,1.169,0,0,0,88.275,227.2Zm.2,2.22c0,.148-.1.938-.691.938a.385.385,0,0,1-.395-.395c0-.247.148-.592.888-.592A.778.778,0,0,0,88.472,229.421Z" transform="translate(-81.959 -226.312)" fill="#fff"/>
      <path id="Tracé_87" data-name="Tracé 87" d="M136.335,230.446a1.265,1.265,0,0,0,1.48-1.283c0-1.234-1.184-.987-1.184-1.48,0-.247.2-.345.543-.345.148,0,.691.049.691.049l.148-.888a3.748,3.748,0,0,0-.938-.1c-.74,0-1.48.3-1.48,1.283,0,1.135,1.234,1.036,1.234,1.48,0,.3-.345.345-.592.345a3.227,3.227,0,0,1-.888-.148l-.148.888C135.249,230.348,135.5,230.446,136.335,230.446Z" transform="translate(-127.749 -225.561)" fill="#fff"/>
      <path id="Tracé_88" data-name="Tracé 88" d="M430.013,214.4l-.2,1.332a1.368,1.368,0,0,0-.937-.493c-.888,0-1.678,1.086-1.678,2.369,0,.79.395,1.628,1.234,1.628a1.317,1.317,0,0,0,.938-.395l-.049.345h.987l.74-4.737Zm-.444,2.615c0,.543-.247,1.234-.789,1.234-.345,0-.543-.3-.543-.79,0-.79.345-1.283.789-1.283C429.371,216.176,429.568,216.423,429.568,217.015Z" transform="translate(-401.738 -214.301)" fill="#fff"/>
      <path id="Tracé_89" data-name="Tracé 89" d="M15.338,219.137l.592-3.553.1,3.553h.691L18,215.584l-.543,3.553H18.5l.79-4.737H17.657l-.987,2.911L16.62,214.4H15.19l-.79,4.737Z" transform="translate(-14.4 -214.301)" fill="#fff"/>
      <path id="Tracé_90" data-name="Tracé 90" d="M261.086,232.649c.3-1.628.345-2.961,1.036-2.714a3.872,3.872,0,0,1,.345-1.135h-.2c-.444,0-.789.592-.789.592l.1-.543h-.938L260,232.7h1.086Z" transform="translate(-244.851 -227.813)" fill="#fff"/>
      <path id="Tracé_91" data-name="Tracé 91" d="M348.275,227.2a3.5,3.5,0,0,0-1.184.2l-.148.839a2.916,2.916,0,0,1,1.086-.2c.345,0,.641.049.641.345,0,.2-.049.247-.049.247h-.444c-.839,0-1.776.345-1.776,1.48,0,.888.592,1.086.938,1.086a1.483,1.483,0,0,0,1.036-.444l-.049.395h.888l.395-2.714A1.152,1.152,0,0,0,348.275,227.2Zm.247,2.22c0,.148-.1.938-.691.938a.385.385,0,0,1-.395-.395c0-.247.148-.592.888-.592C348.472,229.421,348.472,229.421,348.522,229.421Z" transform="translate(-325.922 -226.312)" fill="#fff"/>
      <path id="Tracé_92" data-name="Tracé 92" d="M395.486,232.649c.3-1.628.345-2.961,1.036-2.714a3.872,3.872,0,0,1,.345-1.135h-.2c-.444,0-.789.592-.789.592l.1-.543h-.938L394.4,232.7h1.086Z" transform="translate(-370.961 -227.813)" fill="#fff"/>
    </g>
    <g id="Groupe_99" data-name="Groupe 99" transform="translate(0.888 107.708)">
      <path id="Tracé_93" data-name="Tracé 93" d="M180,223.652a.741.741,0,0,0,.79.839,1.879,1.879,0,0,0,.74-.148l.148-.839a2.138,2.138,0,0,1-.247.049c-.345,0-.395-.2-.345-.3l.3-1.727h.543l.148-.938h-.493l.1-.592" transform="translate(-169.786 -219.556)" fill="#dce5e5"/>
      <path id="Tracé_94" data-name="Tracé 94" d="M218.4,230.925c0,1.382.444,1.727,1.234,1.727a2.562,2.562,0,0,0,1.036-.148l.2-.938a2.958,2.958,0,0,1-1.036.247c-1.086,0-.888-.789-.888-.789h2.023a6.4,6.4,0,0,0,.148-.888,1.337,1.337,0,0,0-1.431-1.431C218.647,228.606,218.4,229.692,218.4,230.925Zm1.234-1.431c.543,0,.641.641.641.691h-1.283C218.992,230.136,219.091,229.495,219.634,229.495Z" transform="translate(-205.817 -227.718)" fill="#dce5e5"/>
      <path id="Tracé_95" data-name="Tracé 95" d="M306.221,217.586l.2-1.086a2.425,2.425,0,0,1-.839.247c-.691,0-.987-.543-.987-1.135,0-1.184.592-1.826,1.283-1.826a1.648,1.648,0,0,1,.888.3l.148-1.036a3.47,3.47,0,0,0-1.135-.247c-1.135,0-1.776.987-1.776,2.862,0,1.234.1,2.072,1.283,2.072A4.429,4.429,0,0,0,306.221,217.586Z" transform="translate(-286.137 -212.8)" fill="#dce5e5"/>
      <path id="Tracé_96" data-name="Tracé 96" d="M86.943,229.787a2.917,2.917,0,0,1,1.086-.2c.345,0,.641.049.641.345,0,.2-.049.247-.049.247h-.444c-.839,0-1.776.345-1.776,1.48,0,.888.592,1.086.938,1.086a1.483,1.483,0,0,0,1.036-.444l-.049.395h.888l.395-2.714c0-1.135-.987-1.184-1.382-1.184m.74,2.122a1.616,1.616,0,0,1-1.184.938.385.385,0,0,1-.395-.395c0-.247.148-.592.888-.592A4.031,4.031,0,0,0,88.966,230.922Z" transform="translate(-81.959 -227.813)" fill="#dce5e5"/>
      <path id="Tracé_97" data-name="Tracé 97" d="M136,230.348a4.176,4.176,0,0,0,1.135.1,1.265,1.265,0,0,0,1.48-1.283c0-1.234-1.184-.987-1.184-1.48,0-.247.2-.345.543-.345.148,0,.691.049.691.049l.148-.888a3.748,3.748,0,0,0-.938-.1c-.74,0-.987.3-.987,1.283,0,1.135.74,1.036.74,1.48,0,.3-.345.345-.592.345" transform="translate(-128.5 -225.561)" fill="#dce5e5"/>
      <path id="Tracé_98" data-name="Tracé 98" d="M437.267,216.483a1.368,1.368,0,0,0-.938-.493c-.888,0-1.184,1.086-1.184,2.369,0,.79-.1,1.628.74,1.628a1.317,1.317,0,0,0,.938-.395l-.049.345h.987l.74-4.737m-1.283,2.566c0,.543-.444,1.234-.987,1.234-.345,0-.543-.3-.543-.789,0-.79.345-1.283.79-1.283A.754.754,0,0,1,437.218,217.766Z" transform="translate(-409.19 -215.052)" fill="#dce5e5"/>
      <path id="Tracé_99" data-name="Tracé 99" d="M15.338,219.137l.592-3.553.1,3.553h.691L18,215.584l-.543,3.553H18.5l.79-4.737H18.051l-1.382,2.911-.049-2.911h-.543L14.4,219.137Z" transform="translate(-14.4 -214.301)" fill="#dce5e5"/>
      <path id="Tracé_100" data-name="Tracé 100" d="M260.8,232.649h1.036c.3-1.628.345-2.961,1.036-2.714a3.874,3.874,0,0,1,.345-1.135h-.2c-.444,0-.79.592-.79.592l.1-.543" transform="translate(-245.602 -227.813)" fill="#dce5e5"/>
      <path id="Tracé_101" data-name="Tracé 101" d="M346.943,229.787a2.917,2.917,0,0,1,1.086-.2c.345,0,.641.049.641.345,0,.2-.049.247-.049.247h-.444c-.839,0-1.776.345-1.776,1.48,0,.888.592,1.086.938,1.086a1.483,1.483,0,0,0,1.036-.444l-.049.395h.888l.395-2.714c0-1.135-.987-1.184-1.382-1.184m.74,2.122a1.615,1.615,0,0,1-1.184.938.385.385,0,0,1-.395-.395c0-.247.148-.592.888-.592A4.34,4.34,0,0,0,348.966,230.922Z" transform="translate(-325.922 -227.813)" fill="#dce5e5"/>
      <path id="Tracé_102" data-name="Tracé 102" d="M395.2,232.649h1.036c.3-1.628.345-2.961,1.036-2.714a3.872,3.872,0,0,1,.345-1.135h-.2c-.444,0-.79.592-.79.592l.1-.543" transform="translate(-371.712 -227.813)" fill="#dce5e5"/>
    </g>
  </g>
</svg>
