<svg xmlns="http://www.w3.org/2000/svg" width="30" height="30" viewBox="0 0 30 30">
  <g id="paypal" transform="translate(0 -10.676)">
    <path id="Tracé_20" data-name="Tracé 20" d="M173.2,75.34a2.545,2.545,0,0,0-2.6-.556.717.717,0,0,0-.481.573l-.2,1.379a4.252,4.252,0,0,1-4.19,3.637h-2.866a.717.717,0,0,0-.7.543l-2.15,8.6a.716.716,0,0,0,.695.89h3.583a.717.717,0,0,0,.7-.543l1.3-5.189h2.794a4.647,4.647,0,0,0,4.528-3.538l.529-2.119A3.768,3.768,0,0,0,173.2,75.34Z" transform="translate(-150.2 -59.665)" fill="#03a9f4"/>
    <g id="Groupe_85" data-name="Groupe 85" transform="translate(0 32.078)">
      <path id="Tracé_21" data-name="Tracé 21" d="M.716,337.842a.716.716,0,0,1-.7-.89L.738,334.1v-.03l.717-2.85a.717.717,0,0,1,.7-.543H3.972A1.791,1.791,0,0,1,5.711,332.9l-.179.717a1.791,1.791,0,0,1-1.738,1.357h-1.8l-.58,2.323A.717.717,0,0,1,.716,337.842Zm1.635-4.3H3.793a.358.358,0,0,0,.347-.272l.179-.717a.357.357,0,0,0-.347-.446H2.71Z" transform="translate(0 -330.677)" fill="#283593"/>
      <path id="Tracé_22" data-name="Tracé 22" d="M82.976,377.62h-1.02a1.986,1.986,0,0,1-1.927-2.468h0l.095-.381a1.912,1.912,0,0,1,1.863-1.452h1.02a1.986,1.986,0,0,1,1.923,2.469l-.095.381A1.912,1.912,0,0,1,82.976,377.62ZM81.42,375.5a.553.553,0,0,0,.536.686h1.02a.48.48,0,0,0,.467-.364l.095-.381a.553.553,0,0,0-.536-.686h-1.02a.48.48,0,0,0-.467.364Z" transform="translate(-74.597 -370.455)" fill="#283593"/>
      <path id="Tracé_23" data-name="Tracé 23" d="M128.716,377.631a.717.717,0,0,1-.7-.89l.717-2.866a.717.717,0,0,1,1.392.347l-.717,2.866A.716.716,0,0,1,128.716,377.631Z" transform="translate(-119.402 -370.466)" fill="#283593"/>
    </g>
    <g id="Groupe_86" data-name="Groupe 86" transform="translate(15.668 32.078)">
      <path id="Tracé_24" data-name="Tracé 24" d="M256.716,337.841a.717.717,0,0,1-.7-.89l.717-2.852v-.03l.717-2.85a.717.717,0,0,1,.7-.543h1.823a1.791,1.791,0,0,1,1.738,2.226l-.179.717a1.791,1.791,0,0,1-1.738,1.357h-1.8l-.58,2.323A.717.717,0,0,1,256.716,337.841Zm1.635-4.3h1.443a.358.358,0,0,0,.347-.272l.179-.717a.357.357,0,0,0-.347-.446H258.71Z" transform="translate(-256 -330.676)" fill="#03a9f4"/>
      <path id="Tracé_25" data-name="Tracé 25" d="M338.976,377.62h-1.02a1.986,1.986,0,0,1-1.927-2.468h0l.095-.381a1.912,1.912,0,0,1,1.863-1.452h1.02a1.986,1.986,0,0,1,1.927,2.468l-.095.381A1.912,1.912,0,0,1,338.976,377.62ZM337.42,375.5a.553.553,0,0,0,.536.686h1.02a.48.48,0,0,0,.467-.364l.095-.381a.553.553,0,0,0-.536-.686h-1.02a.48.48,0,0,0-.467.364Z" transform="translate(-330.597 -370.455)" fill="#03a9f4"/>
      <path id="Tracé_26" data-name="Tracé 26" d="M384.716,377.631a.717.717,0,0,1-.7-.89l.717-2.866a.717.717,0,0,1,1.392.347h0l-.717,2.866A.717.717,0,0,1,384.716,377.631Z" transform="translate(-375.402 -370.466)" fill="#03a9f4"/>
    </g>
    <g id="Groupe_87" data-name="Groupe 87" transform="translate(10.803 34.943)">
      <path id="Tracé_27" data-name="Tracé 27" d="M172.811,376.913a.717.717,0,0,1-.6-.32l-1.433-2.15a.717.717,0,1,1,1.192-.8l1.433,2.15a.716.716,0,0,1-.6,1.115Z" transform="translate(-170.661 -373.329)" fill="#283593"/>
      <path id="Tracé_28" data-name="Tracé 28" d="M171.383,379.08a.717.717,0,0,1-.55-1.175l3.583-4.3a.717.717,0,1,1,1.1.919h0l-3.583,4.3A.716.716,0,0,1,171.383,379.08Z" transform="translate(-170.667 -373.347)" fill="#283593"/>
    </g>
    <path id="Tracé_29" data-name="Tracé 29" d="M427.382,337.831a.717.717,0,0,1-.7-.89l1.433-5.732a.717.717,0,1,1,1.392.347h0l-1.433,5.732A.716.716,0,0,1,427.382,337.831Z" transform="translate(-399.533 -298.589)" fill="#03a9f4"/>
    <path id="Tracé_30" data-name="Tracé 30" d="M121.087,11.916a3.621,3.621,0,0,0-2.731-1.24h-8.111a.716.716,0,0,0-.705.589l-2.866,15.764a.716.716,0,0,0,.705.844h4.3a.717.717,0,0,0,.7-.543l1.3-5.189h2.306a5.692,5.692,0,0,0,5.61-4.872l.358-2.449h0A3.65,3.65,0,0,0,121.087,11.916Z" transform="translate(-100.172 0)" fill="#283593"/>
  </g>
</svg>
