<svg xmlns="http://www.w3.org/2000/svg" width="51.341" height="46.151" viewBox="0 0 51.341 46.151">
  <path id="shopping-cart" d="M24.8,149.977a4.264,4.264,0,1,1-4.264-4.264A4.264,4.264,0,0,1,24.8,149.977Zm13-4.264a4.264,4.264,0,1,0,4.264,4.264A4.264,4.264,0,0,0,37.8,145.713ZM51.036,125.7l-5.246,15.594a2.815,2.815,0,0,1-2.647,2.314H16.65c-2.641,0-2.752-2.9-2.752-2.9s-2.815-20.884-2.954-22.146-1.753-2.2-1.753-2.2l-6.942-3.243c-3.8-1.988-2.073-5.77,0-4.9,8.8,4.153,12.893,6.2,13.156,7.833s.729,5.586.729,5.586v.025l.092-.025H48.674C52.592,121.637,51.036,125.7,51.036,125.7Zm-7.589,8.683-.054,0H17.709l.529,4.2H42.2Zm2.5-8.464h-29.3l.564,4.486H44.623Z" transform="translate(0 -108.09)" fill="#eda19e"/>
</svg>
