<svg xmlns="http://www.w3.org/2000/svg" width="30" height="46.952" viewBox="0 0 30 46.952">
  <g id="location" transform="translate(-64)">
    <g id="Groupe_127" data-name="Groupe 127" transform="translate(64)">
      <g id="Groupe_126" data-name="Groupe 126" transform="translate(0)">
        <path id="Tracé_115" data-name="Tracé 115" d="M79,0C70.716,0,64,7.708,64,17.216c0,9.251,13.883,28.632,14.474,29.452a.628.628,0,0,0,1.051,0C80.117,45.848,94,26.467,94,17.216,94,7.708,87.284,0,79,0Zm0,44.926c-2.566-3.676-13.636-19.985-13.636-27.71C65.372,8.576,71.472,1.575,79,1.565c7.528.01,13.628,7.011,13.636,15.651C92.636,24.939,81.566,41.25,79,44.926Z" transform="translate(-64)" fill="#fff"/>
        <path id="Tracé_116" data-name="Tracé 116" d="M145.239,71.991l-8.115-7.825a.528.528,0,0,0-.762,0l-8.115,7.825a.921.921,0,0,0-.113,1.1.59.59,0,0,0,.494.3H130.5V82a.717.717,0,0,0,.624.783h11.237a.717.717,0,0,0,.624-.783V73.394h1.873a.717.717,0,0,0,.624-.783A.865.865,0,0,0,145.239,71.991Zm-7.248,9.228h-2.5v-4.7h2.5Zm4.37-9.39a.717.717,0,0,0-.624.783v8.608h-2.5V75.741a.717.717,0,0,0-.624-.783H134.87a.717.717,0,0,0-.624.783v5.478h-2.5V72.611a.717.717,0,0,0-.624-.783h-.662l6.28-6.055,6.28,6.055Z" transform="translate(-121.743 -57.743)" fill="#fff"/>
      </g>
    </g>
  </g>
</svg>
