<svg xmlns="http://www.w3.org/2000/svg" width="30" height="30" viewBox="0 0 30 30">
  <g id="Page-1" transform="translate(0.003)">
    <g id="_003---Call" data-name="003---Call" transform="translate(-0.003)">
      <path id="Shape" d="M13.419,17.6a12.107,12.107,0,0,1-3.655-6.874,1.028,1.028,0,0,1,.3-.861l2.317-2.316a1.034,1.034,0,0,0,.146-1.28L8.833.546A1.034,1.034,0,0,0,7.493.169L1.571,2.958A1.029,1.029,0,0,0,1,3.986c.31,2.948,1.6,10.2,8.717,17.318s14.367,8.407,17.316,8.717a1.029,1.029,0,0,0,1.028-.569l2.789-5.922a1.034,1.034,0,0,0-.375-1.338L24.749,18.5a1.034,1.034,0,0,0-1.28.145l-2.316,2.317a1.028,1.028,0,0,1-.861.3A12.106,12.106,0,0,1,13.419,17.6Z" transform="translate(-0.997 -0.026)" fill="#fff"/>
      <path id="Shape-2" data-name="Shape" d="M38.628,21.747a1.119,1.119,0,0,1-1.119-1.119,8.4,8.4,0,0,0-8.391-8.391,1.119,1.119,0,0,1,0-2.238A10.64,10.64,0,0,1,39.747,20.628,1.119,1.119,0,0,1,38.628,21.747Z" transform="translate(-14.68 -5.067)" fill="#fff"/>
      <path id="Shape-3" data-name="Shape" d="M44.222,17.341A1.119,1.119,0,0,1,43.1,16.222,14,14,0,0,0,29.119,2.238a1.119,1.119,0,0,1,0-2.238A16.24,16.24,0,0,1,45.341,16.222a1.119,1.119,0,0,1-1.119,1.119Z" transform="translate(-15.341)" fill="#fff"/>
    </g>
  </g>
</svg>
